<svg xmlns="http://www.w3.org/2000/svg" viewBox="0 0 360 300" fill="none">
  <defs><linearGradient id="water" x1="180" y1="163" x2="180" y2="274" gradientUnits="userSpaceOnUse"><stop stop-color="#a1e0dc"/><stop offset="1" stop-color="#499ba9"/></linearGradient><linearGradient id="stone" x1="180" y1="60" x2="180" y2="212" gradientUnits="userSpaceOnUse"><stop stop-color="#c4d2ba"/><stop offset="1" stop-color="#7aada6"/></linearGradient>
    <g id="pillar" stroke="#496f75" stroke-width="4" stroke-linejoin="round"><path d="m-14-48 6-15 20 5 4 15-3 88h-25Z" fill="url(#stone)"/><path d="m-21 43 39 0 4 13h-46Z" fill="#8fbbb0"/><path d="m-14-44 30 1" stroke="#dce5c5"/><path d="m-2-35-2 68" stroke="#cfddbf" stroke-width="3"/></g>
  </defs>
  <ellipse cx="180" cy="277" rx="153" ry="15" fill="#294d65" opacity=".2"/>
  <path d="m30 221 20 40 61 15 80 9 87-21 45-31-19-31-243-14Z" fill="#547c83" stroke="#3e6573" stroke-width="5" stroke-linejoin="round"/>
  <path d="M25 213c11-29 53-45 99-48 35-14 91-11 120 3 42 1 78 20 84 43 4 24-44 47-115 54-67 10-151-6-181-29Z" fill="url(#water)" stroke="#3e6573" stroke-width="5"/>
  <path d="M46 215c21-22 65-26 95-25m90-7c28 2 53 12 66 24M56 239c52 19 126 20 171 9m28-6 32-10" stroke="#c2f3e4" stroke-width="4" stroke-linecap="round"/>
  <path d="m94 216 18-22h139l21 22-23 13H113Z" fill="#a7c4ad" stroke="#496f75" stroke-width="4"/>
  <path d="m112 198 8-15h123l8 15Z" fill="#c0d2b4" stroke="#496f75" stroke-width="4"/>
  <use href="#pillar" transform="translate(91 153) rotate(-12) scale(.85)"/>
  <use href="#pillar" transform="translate(276 158) rotate(16) scale(.82)"/>
  <path d="M132 185v-65c0-62 99-62 99 0v65" fill="url(#stone)" stroke="#496f75" stroke-width="5"/>
  <path d="M154 185v-65c0-33 54-33 54 0v65" fill="#274b61" stroke="#496f75" stroke-width="5"/>
  <path d="M163 181v-60c0-24 35-24 35 0v60" fill="#2f6074"/>
  <path d="m169 181 3-51 11-16 11 16-1 51" fill="#62b9c2" opacity=".65"/>
  <path d="m123 90 4-14 28-4 3-15 47 1 6 14 25 8 4 13Z" fill="#aed0b7" stroke="#496f75" stroke-width="4" stroke-linejoin="round"/>
  <path d="m179 40-12 19 13 17 14-17Z" fill="#a6f2db" stroke="#497780" stroke-width="3"/><path d="m179 44-1 25" stroke="#e1ffdf" stroke-width="3"/>
  <path d="m143 113 11 2m53-2 14-2m-82 38 16-3m53 4 15 3" stroke="#dce5c5" stroke-width="4" stroke-linecap="round"/>
  <path d="m218 98-6 17 8 9-8 15m-73-36 8-10" stroke="#658e8c" stroke-width="3" stroke-linecap="round"/>
  <path d="m160 201 7-6h31l8 6-6 8h-33Z" fill="#dddfbd" stroke="#719c97" stroke-width="2"/>
  <g stroke="#4a7b82" stroke-width="3"><path d="m116 181 4-19h14l5 19Z" fill="#8bb9aa"/><path d="m174 181 3-20h13l5 20Z" fill="#8bb9aa"/><path d="m231 181 3-19h13l6 19Z" fill="#8bb9aa"/></g>
  <g fill="#a8f2d2" stroke="#e3ffe0" stroke-width="2"><circle cx="127" cy="159" r="6"/><circle cx="184" cy="158" r="6"/><circle cx="241" cy="159" r="6"/></g>
  <path d="M128 261c4 16 2 22-4 29m14-28c6 15 3 20-1 29m77-31c-3 11 1 18 4 25" stroke="#b1eee2" stroke-width="6" stroke-linecap="round"/>
  <g stroke="#6b9299" stroke-width="3" stroke-linecap="round"><path d="M53 225v-21m0 14-9-7m9 0 7-11M291 237v-22m0 13 10-6m-10-1-6-6" stroke="#ca97ae"/><path d="m71 233 5-5 10 4-3 7H70Z" fill="#ccd7bc"/><path d="m255 249 6-8 11 2 5 8-15 5Z" fill="#ccd7bc"/></g>
  <g fill="#d6f3dd"><circle cx="254" cy="102" r="3"/><circle cx="111" cy="97" r="2"/><path d="m296 161 2 6 6 2-6 2-2 6-2-6-6-2 6-2Z"/></g>
</svg>
